<svg xmlns="http://www.w3.org/2000/svg" width="300" height="300">
  <path d="M30 0h240a30 30 0 0130 30v240a30 30 0 01-30 30H30a30 30 0 01-30-30V30A30 30 0 0130 0zm10 29h222a10 10 0 0110 10v222a10 10 0 01-10 10H40a10 10 0 01-10-10V39a10 10 0 0110-10zm184 208.657c-18 1.995-20-11.974-20-11.974l-2-112.735-4-1S174.5 214.69 172 221.69s-3 5.986-6 10.974c-9 6.989-16 5.656-16 4.991v.155c0 .666-7 2-16-4.994-3-4.993-3.5-3.978-6-10.984s-26-109.841-26-109.841l-4 1-2 112.837s-2 13.982-20 11.985c-17 .505-18-15.979-18-15.979s6.667-140.8 8-144.79a18.181 18.181 0 0113-11.983c8-2 24.333-.666 29 0s11 4.66 14 9.985S150 177.9 150 177.9v-.1s25-97.438 28-102.758 9.333-9.312 14-9.977 21-2 29 0a18.173 18.173 0 0113 11.972c1.333 3.991 8 144.66 8 144.66s-1 16.465-18 15.96z" fill="#9dee61" fill-rule="evenodd"/>
</svg>
